<?xml version="1.0" encoding="utf-8"?>
<!-- Generator: Adobe Illustrator 22.0.0, SVG Export Plug-In . SVG Version: 6.00 Build 0)  -->
<svg version="1.1" xmlns="http://www.w3.org/2000/svg" xmlns:xlink="http://www.w3.org/1999/xlink" x="0px" y="0px"
	 viewBox="0 0 512 512" style="enable-background:new 0 0 512 512;" xml:space="preserve">
<style type="text/css">
	.st0{fill:#ED564F;}
	.st1{fill:#FFCE00;}
	.st2{fill:#FFFFFF;}
	.st3{fill:#EFAA56;}
	.st4{fill:#1AD31A;}
	.st5{fill:#64B5F6;}
</style>
<g id="Alta">
</g>
<g id="Media">
	<g id="Icono_1_">
		<g id="fondos_1_">
			<path class="st3" d="M460.25,283.98v0.09c0.02,3.4,0.82,7,2.63,10.22c0.06,0.1,0.12,0.2,0.18,0.3c1.66,2.84,4.14,5.36,7.58,7.16
				c6.06,3.17,9.86,9.45,9.86,16.29v63.57c0,10.16-8.23,18.39-18.39,18.39H95.21c-10.16,0-18.39-8.23-18.39-18.39v-4.22
				c0-0.81-0.05-1.6-0.16-2.38v-16.29H46.69c-8.63-1.51-15.19-9.04-15.19-18.11V266c0-6.94,4.05-13.09,10.19-16.3
				c2.06-1.08,3.78-2.42,5.18-3.93c3.65-3.94,5.17-9.05,5.19-13.75c0.02-3.87-0.93-7.77-2.93-11.17c-0.12-0.23-0.26-0.45-0.4-0.67
				c-1.76-2.72-4.22-5.09-7.44-6.8c-0.56-0.3-1.09-0.62-1.61-0.98c-5.07-3.37-8.18-9.08-8.18-15.26v-66.75
				c0-10.16,8.23-18.39,18.39-18.39h367.22c9.35,0,17.07,6.97,18.23,16.01v25.27h15.35c1.04,0.18,2.11,0.28,3.2,0.28h8.22
				c10.16,0,18.39,8.23,18.39,18.39v77.42c0,5.91-2.85,11.38-7.53,14.82c-0.67,0.49-1.38,0.95-2.12,1.35
				C463.6,269.48,460.25,276.76,460.25,283.98z"/>
			<path class="st4" d="M366.783,174.555H199.507c-4.538,0-8.217-3.679-8.217-8.217v-15.565c0-4.538,3.679-8.217,8.217-8.217
				h167.275c4.538,0,8.217,3.679,8.217,8.217v15.565C375,170.876,371.321,174.555,366.783,174.555z"/>
			<path class="st2" d="M342.09,218.681v68.273c0,0.482-0.125,0.957-0.369,1.373c-0.6,1.021-1.227,2.028-1.881,3.013
				c-0.24,0.39-0.5,0.77-0.77,1.15c-0.06,0.09-0.13,0.19-0.2,0.28h-13.819c-1.48,0-2.681,1.2-2.681,2.681v12.65
				c0,0.887-0.436,1.717-1.17,2.216c-0.12,0.081-0.24,0.163-0.36,0.244c-1.028,0.702-2.082,1.374-3.153,2.016
				c-0.816,0.489-1.327,1.359-1.327,2.311v23.834h1.36V339h1.969c1.48,0,2.681,1.2,2.681,2.681v10.639c0,1.48-1.2,2.681-2.681,2.681
				h-70.409c-1.48,0-2.681-1.2-2.681-2.681v-10.639c0-1.48,1.2-2.681,2.681-2.681h0.229v-0.28h1.13v-23.833
				c0-0.952-0.511-1.822-1.327-2.312c-0.495-0.297-0.985-0.602-1.473-0.914c-0.004-0.003-0.008-0.005-0.013-0.008
				c-0.771-0.478-1.227-1.331-1.227-2.238v-13.964c0-1.48-1.2-2.681-2.681-2.681h-13.319c-1.48,0-2.681-1.2-2.681-2.681v-71.409
				c0-1.48,1.2-2.681,2.681-2.681h25.699c1.48,0,2.681,1.2,2.681,2.681V243.4c0,1.96,1.05,3.78,2.77,4.82l18.75,11.26
				c1.91,1.15,4.33,1.15,6.24,0l18.74-11.26c1.72-1.04,2.77-2.86,2.77-4.82v-24.719c0-1.48,1.2-2.681,2.681-2.681h28.479
				C340.89,216,342.09,217.2,342.09,218.681z"/>
		</g>
		<g id="lineas_1_">
			<path d="M102.403,309.487H66.34c-4.694,0-8.5-3.806-8.5-8.5v0c0-4.694,3.806-8.5,8.5-8.5h36.063c4.694,0,8.5,3.806,8.5,8.5v0
				C110.903,305.681,107.097,309.487,102.403,309.487z"/>
			<path d="M102.403,281.741H66.34c-4.694,0-8.5-3.806-8.5-8.5v0c0-4.694,3.806-8.5,8.5-8.5h36.063c4.694,0,8.5,3.806,8.5,8.5v0
				C110.903,277.936,107.097,281.741,102.403,281.741z"/>
			<path d="M102.403,163.689H66.34c-4.694,0-8.5-3.806-8.5-8.5v0c0-4.694,3.806-8.5,8.5-8.5h36.063c4.694,0,8.5,3.806,8.5,8.5v0
				C110.903,159.883,107.097,163.689,102.403,163.689z"/>
			<path d="M368.465,184.97h-170c-6.824,0-12.375-5.551-12.375-12.375v-28.639c0-6.824,5.551-12.375,12.375-12.375h170
				c6.823,0,12.375,5.551,12.375,12.375v28.639C380.84,179.419,375.288,184.97,368.465,184.97z M203.09,167.97h160.75v-19.389
				H203.09V167.97z"/>
			<path d="M140.349,314.85L140.349,314.85c-4.694,0-8.5-3.856-8.5-8.612V287.01c0-4.757,3.806-8.612,8.5-8.612h0
				c4.694,0,8.5,3.856,8.5,8.612v19.228C148.849,310.994,145.043,314.85,140.349,314.85z"/>
			<path d="M140.349,271.947L140.349,271.947c-4.694,0-8.5-3.856-8.5-8.612v-19.228c0-4.757,3.806-8.612,8.5-8.612h0
				c4.694,0,8.5,3.856,8.5,8.612v19.228C148.849,268.091,145.043,271.947,140.349,271.947z"/>
			<path d="M140.349,227.927L140.349,227.927c-4.694,0-8.5-3.856-8.5-8.612v-19.228c0-4.757,3.806-8.612,8.5-8.612h0
				c4.694,0,8.5,3.856,8.5,8.612v19.228C148.849,224.071,145.043,227.927,140.349,227.927z"/>
			<path d="M140.349,184.295L140.349,184.295c-4.694,0-8.5-3.856-8.5-8.612v-19.228c0-4.757,3.806-8.612,8.5-8.612h0
				c4.694,0,8.5,3.856,8.5,8.612v19.228C148.849,180.439,145.043,184.295,140.349,184.295z"/>
			<path d="M472.97,264.19c2.17-0.88,4.62-1.49,7.37-1.77c0.94-0.08,1.92-0.14,2.94-0.15c5.47-0.06,9.88-4.52,9.88-9.99v-89
				c0-5.53-4.48-10-10-10h-47.82v-42.06c0-5.52-4.48-10-10-10H28.84c-5.52,0-10,4.48-10,10v89c0,5.48,4.41,9.94,9.88,10h0.01
				c0.9,0.01,1.77,0.05,2.61,0.13c3.16,0.28,5.94,1,8.34,2.05c4.05,1.79,7.05,4.54,9.05,7.78c0.14,0.22,0.28,0.44,0.4,0.67
				c1.89,3.33,2.79,7.12,2.77,10.89c-0.02,4.7-1.54,9.81-5.19,13.75c-3.27,3.53-8.24,6.12-15.37,6.62
				c-0.82,0.07-1.66,0.11-2.54,0.11c-5.51,0.02-9.96,4.49-9.96,10v86.5c0,5.52,4.48,10,10,10h47.82v42.06c0,5.52,4.48,10,10,10
				h396.5c5.52,0,10-4.48,10-10v-86.5c0-2.76-1.11-5.25-2.91-7.06c-1.81-1.81-4.29-2.93-7.05-2.94c-0.99,0-1.95-0.05-2.86-0.13
				c-8.81-0.72-14.28-4.64-17.28-9.56c-0.06-0.1-0.12-0.2-0.18-0.3c-1.93-3.29-2.77-7.01-2.79-10.5v-0.09
				C460.09,275.77,464.14,267.76,472.97,264.19z M48.84,338.72c-5.52,0-10-4.48-10-10v-49.86c0-4.27,2.74-8,6.76-9.46
				c17.26-6.26,26.24-22.02,26.3-37.59c0.07-16.03-9-32.33-26.6-38.75c-3.91-1.42-6.46-5.19-6.46-9.35v-52.49c0-5.52,4.48-10,10-10
				h83.01v11.29c0,4.18,3.8,7.57,8.5,7.57c4.69,0,8.5-3.39,8.5-7.57v-11.29h256.49c5.52,0,10,4.48,10,10v52.49
				c0,4.16-2.55,7.93-6.46,9.35c-17.6,6.42-26.67,22.72-26.6,38.75c0.05,15.57,9.04,31.33,26.3,37.59c4.02,1.46,6.76,5.19,6.76,9.46
				v49.86c0,5.52-4.48,10-10,10h-88.98v-25.37c1.53-0.87,3.03-1.8,4.48-2.79c0.52-0.35,1.03-0.7,1.53-1.06
				c6.45-4.6,12.02-10.27,16.5-16.73c0.07-0.09,0.14-0.19,0.2-0.28c0.27-0.38,0.53-0.76,0.77-1.15c0.79-1.19,1.54-2.41,2.25-3.65
				c5.53-9.59,8.86-20.58,9.48-32.2c0.77-14.49-2.62-28.1-9.48-39.48c0-0.01-0.01-0.01-0.01-0.01
				c-5.33-8.85-12.75-16.35-21.96-21.89l-6.42-3.87c-2.84-1.71-6.46,0.34-6.46,3.65v49.23c0,1.96-1.01,3.78-2.67,4.82l-18.06,11.26
				c-1.84,1.15-4.17,1.15-6.01,0l-18.06-11.26c-1.66-1.04-2.67-2.86-2.67-4.82v-49.23c0-3.32-3.62-5.36-6.46-3.65l-6.43,3.87
				c-21.05,12.68-32.81,35.62-31.44,61.39c0.73,13.59,5.16,26.32,12.48,36.95c0.07,0.11,0.14,0.21,0.22,0.32
				c4.94,7.1,11.18,13.25,18.46,18.08c0.41,0.28,0.82,0.55,1.24,0.81c0.92,0.59,1.85,1.15,2.8,1.69v25.37H148.85v-7.47
				c0-2.06-0.95-3.93-2.49-5.28c-1.54-1.35-3.66-2.19-6.01-2.19c-4.7,0-8.5,3.35-8.5,7.47v7.47H48.84z M264.29,301.19l-1.56-0.72
				c-17.63-8.21-29.24-25.79-30.31-45.88c-0.7-13.09,3.04-25.17,10.35-34.53v32.16c0,2.17,1.12,4.18,2.95,5.32l34.46,21.5
				c2.04,1.27,4.61,1.27,6.65,0l34.46-21.5c1.83-1.14,2.95-3.15,2.95-5.32v-32.16c7.31,9.35,11.05,21.43,10.35,34.53
				c-1.06,20.09-12.68,37.67-30.31,45.88l-1.56,0.72c-2.05,0.96-3.36,3.01-3.36,5.27v33.26h-31.72v-33.26
				C267.64,304.2,266.33,302.15,264.29,301.19z M466.4,321.46c4.02,1.45,6.76,5.18,6.76,9.45v49.87c0,5.52-4.48,10-10,10h-356.5
				c-5.52,0-10-4.48-10-10v-22.06h328.68c5.52,0,10-4.48,10-10v-86.5c0-2.76-1.11-5.25-2.91-7.06c-1.81-1.81-4.29-2.93-7.05-2.94
				c-17-0.06-23.07-11.07-23.11-20.48v-0.09c0-10.55,7.16-21.25,23.19-21.43c5.47-0.06,9.88-4.52,9.88-10v-26.94h27.82
				c5.52,0,10,4.47,10,10v52.49c0,4.16-2.55,7.92-6.46,9.35c-17.6,6.41-26.67,22.71-26.6,38.75
				C440.15,299.44,449.14,315.19,466.4,321.46z"/>
		</g>
	</g>
</g>
<g id="Baja">
</g>
</svg>
