<?xml version="1.0" encoding="UTF-8"?>
<svg id="logo_light" xmlns="http://www.w3.org/2000/svg" version="1.1" xmlns:cc="http://creativecommons.org/ns#" xmlns:dc="http://purl.org/dc/elements/1.1/" xmlns:rdf="http://www.w3.org/1999/02/22-rdf-syntax-ns#" xmlns:svg="http://www.w3.org/2000/svg" viewBox="0 0 744 110">
  <defs>
    <style>
      .cls-1 {
        fill: #fff;
      }

      .cls-1, .cls-2 {
        stroke-width: 0px;
      }

      .cls-2 {
        fill: #fff;
      }
    </style>
  </defs>
  <g id="light">
    <g id="sigesot">
      <g id="path215968">
        <path class="cls-1" d="M155.604,84.501c0,5.222-4.235,9.317-9.457,9.317-5.083,0-9.317-4.095-9.317-9.317s4.235-9.315,9.317-9.315c5.222,0,9.457,4.093,9.457,9.315Z"/>
        <path class="cls-2" d="M178.754,106.946c-7.342,0-17.222-2.824-17.222-10.022,0-5.929,3.951-9.176,8.611-8.892,4.799.281,10.022,1.976,15.102-.425,3.953-1.834,6.917-5.364,6.917-10.303,0-5.929-6.633-9.74-21.031-14.963-12.987-4.658-32.466-10.445-32.608-29.784,0-7.34,2.824-14.256,8.046-19.62,4.518-4.518,12.845-9.882,27.385-9.882,16.513,0,27.525,8.752,31.195,13.975,2.54,3.388,2.117,7.904-.423,11.151-3.388,4.235-8.469,3.812-11.999.706-2.54-2.259-8.469-8.188-19.337-8.188-9.459,0-16.092,4.941-16.092,11.858,0,4.516,4.941,8.328,19.62,13.975,18.068,6.917,34.018,14.538,34.018,31.901,0,13.973-9.74,28.513-32.183,28.513Z"/>
      </g>
      <g id="path215970">
        <path class="cls-1" d="M232.209,12.372c0-5.083,4.235-9.317,9.317-9.317,5.222,0,9.457,4.235,9.457,9.317,0,5.222-4.235,9.457-9.457,9.457-5.083,0-9.317-4.235-9.317-9.457Z"/>
        <path class="cls-2" d="M232.209,95.088v-54.627c0-5.081,4.235-9.315,9.317-9.315,5.222,0,9.457,4.235,9.457,9.315v54.627c0,5.083-4.235,9.317-9.457,9.317-5.083,0-9.317-4.235-9.317-9.317Z"/>
      </g>
      <g id="path215972">
        <path class="cls-2" d="M322.012,3.054c9.457,0,22.726,1.836,33.454,10.588,3.951,3.245,4.235,8.892,1.269,13.127-2.822,3.951-8.469,3.387-12.985.988-5.929-2.963-12.845-5.929-21.738-5.929-18.351,0-33.172,14.821-33.172,33.172s14.821,33.17,33.172,33.17c7.34,0,15.951-2.257,22.161-5.787v-19.479c0-5.083,4.093-9.317,9.315-9.317s9.317,4.235,9.317,9.317v22.161c0,2.54,0,4.518-.988,6.635-.848,1.692-2.259,2.963-4.095,4.235-9.315,6.633-23.43,11.01-35.711,11.01-28.654,0-51.946-23.29-51.946-51.945S293.358,3.054,322.012,3.054Z"/>
        <path class="cls-1" d="M325.541,53.588c5.081,0,9.315,4.235,9.315,9.317,0,5.222-4.235,9.457-9.315,9.457-5.222,0-9.457-4.235-9.457-9.457,0-5.083,4.235-9.317,9.457-9.317Z"/>
      </g>
      <g id="path215974">
        <path class="cls-2" d="M394.071,104.403c-5.081,0-9.315-4.235-9.315-9.317V14.91c0-5.081,4.235-9.315,9.315-9.315h19.481c5.081,0,9.315,4.235,9.315,9.315,0,5.222-4.235,9.457-9.315,9.457h-10.022v21.598h32.747c5.222,0,9.315,3.812,9.315,9.034,0,5.081-4.093,8.892-9.315,8.892h-32.747v21.738h38.534c5.222,0,9.315,4.235,9.315,9.457,0,5.083-4.093,9.317-9.315,9.317h-47.993Z"/>
        <path class="cls-1" d="M441.641,24.367c-5.222,0-9.457-4.235-9.457-9.457,0-5.081,4.235-9.315,9.457-9.315,5.081,0,9.315,4.235,9.315,9.315,0,5.222-4.235,9.457-9.315,9.457Z"/>
      </g>
      <g id="path215976">
        <path class="cls-1" d="M485.58,84.501c0,5.222-4.235,9.317-9.457,9.317-5.083,0-9.317-4.095-9.317-9.317s4.235-9.315,9.317-9.315c5.222,0,9.457,4.093,9.457,9.315Z"/>
        <path class="cls-2" d="M508.731,106.946c-7.342,0-17.222-2.824-17.222-10.022,0-5.929,3.951-9.176,8.611-8.892,4.799.281,10.022,1.976,15.102-.425,3.953-1.834,6.917-5.364,6.917-10.303,0-5.929-6.633-9.74-21.031-14.963-12.987-4.658-32.466-10.445-32.608-29.784,0-7.34,2.824-14.256,8.046-19.62,4.518-4.518,12.845-9.882,27.385-9.882,16.513,0,27.525,8.752,31.195,13.975,2.54,3.388,2.117,7.904-.423,11.151-3.388,4.235-8.469,3.812-11.999.706-2.54-2.259-8.469-8.188-19.337-8.188-9.459,0-16.092,4.941-16.092,11.858,0,4.516,4.941,8.328,19.62,13.975,18.068,6.917,34.018,14.538,34.018,31.901,0,13.973-9.74,28.513-32.183,28.513Z"/>
      </g>
      <g id="path215978">
        <path class="cls-2" d="M604.85,106.946c-28.654,0-51.946-23.29-51.946-52.086,0-16.092,7.342-30.772,20.045-40.793,3.951-3.105,9.88-2.401,13.127,1.694,3.105,3.951,2.399,9.88-1.694,13.127-8.046,6.352-12.704,15.667-12.704,25.972,0,18.349,14.821,33.312,33.172,33.312s33.312-14.963,33.312-33.312c0-10.305-4.658-19.62-12.845-25.972-4.093-3.247-4.799-9.176-1.553-13.127,3.105-4.095,9.034-4.799,13.127-1.694,12.704,10.022,20.045,24.701,20.045,40.793,0,28.796-23.432,52.086-52.086,52.086Z"/>
        <path class="cls-1" d="M604.85,3.054c5.222,0,9.457,4.235,9.457,9.459,0,5.081-4.235,9.315-9.457,9.315-5.083,0-9.317-4.235-9.317-9.315,0-5.224,4.235-9.459,9.317-9.459Z"/>
      </g>
      <g id="path215980">
        <path class="cls-2" d="M708.886,95.086c0,5.083-4.093,9.317-9.317,9.317s-9.315-4.235-9.315-9.317V24.367h-20.468c-5.081,0-9.315-4.235-9.315-9.457,0-5.081,4.235-9.315,9.315-9.315h29.784c5.647,0,9.317,4.235,9.317,9.315v80.176Z"/>
        <path class="cls-1" d="M738.669,14.91c0,5.222-4.235,9.457-9.317,9.457-5.222,0-9.457-4.235-9.457-9.457,0-5.081,4.235-9.315,9.457-9.315,5.083,0,9.317,4.235,9.317,9.315Z"/>
      </g>
    </g>
    <g id="support">
      <g>
        <path class="cls-2" d="M99.421,42.357c0-21.758-17.544-39.302-39.204-39.302S21.012,20.598,21.012,42.259v.098c-8.723.49-15.682,7.743-15.682,16.564v1.96c0,9.213,7.449,16.662,16.662,16.662h.882l6.959,11.075c4.901,7.841,13.231,12.447,22.444,12.447h1.372c.882,3.332,3.92,5.881,7.547,5.881,4.312,0,7.841-3.528,7.841-7.841s-3.528-7.841-7.841-7.841c-3.626,0-6.665,2.548-7.547,5.881h-1.372c-7.841,0-14.996-4.018-19.112-10.683l-5.685-8.919h1.372c2.156,0,3.92-1.764,3.92-3.92v-27.443c0-2.156-1.764-3.92-3.92-3.92h-3.92c0-19.504,15.78-35.284,35.284-35.284s35.284,15.78,35.284,35.284h-3.92c-2.156,0-3.92,1.764-3.92,3.92v27.443c0,2.156,1.764,3.92,3.92,3.92h6.861c9.213,0,16.662-7.449,16.662-16.662v-1.96c0-8.821-6.959-16.074-15.682-16.564ZM61.197,95.184c2.156,0,3.92,1.764,3.92,3.92s-1.764,3.92-3.92,3.92-3.92-1.764-3.92-3.92,1.764-3.92,3.92-3.92ZM28.853,46.179v27.443h-6.861c-7.057,0-12.741-5.685-12.741-12.741v-1.96c0-7.057,5.685-12.741,12.741-12.741h6.861ZM111.182,60.881c0,7.057-5.685,12.741-12.741,12.741h-6.861v-27.443h6.861c7.057,0,12.741,5.685,12.741,12.741v1.96Z"/>
        <path class="cls-2" d="M76.486,17.854c-.196-.098-.49-.294-.784-.49s-.588-.392-.784-.49c-.882-.588-2.156-.294-2.646.686s-.294,2.058.686,2.646c.196.098.49.294.784.49s.588.392.882.49c.294.196.686.294.98.294.686,0,1.274-.294,1.666-.98.49-.882.196-2.058-.784-2.646Z"/>
        <path class="cls-2" d="M60.216,12.855c-8.331,0-16.172,3.626-21.562,9.899-.686.784-.588,2.058.196,2.744.392.294.784.49,1.274.49.588,0,1.078-.196,1.47-.686,4.705-5.391,11.467-8.527,18.622-8.527,1.764,0,3.528.196,5.293.588,1.078.196,2.058-.49,2.352-1.47s-.49-2.058-1.47-2.352c-2.058-.49-4.116-.686-6.175-.686Z"/>
      </g>
    </g>
  </g>
</svg>